<svg version="1.1" xmlns="http://www.w3.org/2000/svg" xmlns:xlink="http://www.w3.org/1999/xlink" width="583" height="741"><defs/><g><g transform="translate(-110,-22) scale(1,1)"><path fill="#ffffff" stroke="none" d="M 166.73845188210228 329.68 C 166.73845188210228 324.886167936 170.62429420704774 321 175.417724609375 321 C 180.21115501170226 321 184.09699733664772 324.886167936 184.09699733664772 329.68 C 184.09699733664772 334.473832064 180.21115501170226 338.36 175.417724609375 338.36 C 170.62429420704774 338.36 166.73845188210228 334.473832064 166.73845188210228 329.68 Z"/></g><g transform="translate(-110,-22) scale(1,1)"><path fill="none" stroke="#000000" d="M 166.73845188210228 329.68 C 166.73845188210228 324.886167936 170.62429420704774 321 175.417724609375 321 C 180.21115501170226 321 184.09699733664772 324.886167936 184.09699733664772 329.68 C 184.09699733664772 334.473832064 180.21115501170226 338.36 175.417724609375 338.36 C 170.62429420704774 338.36 166.73845188210228 334.473832064 166.73845188210228 329.68 Z" stroke-miterlimit="10"/></g><g transform="translate(-110,-22) scale(1,1)"><path fill="none" stroke="#000000" d="M 175.417724609375 338.36 L 175.417724609375 355.64" stroke-miterlimit="10"/></g><g transform="translate(-110,-22) scale(1,1)"><path fill="none" stroke="#000000" d="M 166.22790642755683 344.84 L 184.60754279119317 344.84" stroke-miterlimit="10"/></g><g transform="translate(-110,-22) scale(1,1)"><path fill="none" stroke="#000000" d="M 175.417724609375 355.64 L 162.65408824573865 373" stroke-miterlimit="10"/></g><g transform="translate(-110,-22) scale(1,1)"><path fill="none" stroke="#000000" d="M 175.417724609375 355.64 L 188.18136097301135 373" stroke-miterlimit="10"/></g><g transform="translate(-110,-22) scale(1,1)"><g><path fill="none" stroke="none"/><text fill="#000000" stroke="none" font-family="Arial" font-size="13px" font-style="normal" font-weight="bold" text-decoration="none" x="128.81005859375" y="393.5">Usuario Android</text></g></g><g transform="translate(-110,-22) scale(1,1)"><path fill="#C0C0C0" stroke="none" d="M 295 74.5 C 295 54.893889599999994 313.1324656 39 335.5 39 C 357.8675344 39 376 54.893889599999994 376 74.5 C 376 94.1061104 357.8675344 110 335.5 110 C 313.1324656 110 295 94.1061104 295 74.5 Z" opacity="0.2"/></g><g transform="translate(-110,-22) scale(1,1)"><path fill="#ffffff" stroke="none" d="M 288 67.5 C 288 47.893889599999994 306.1324656 32 328.5 32 C 350.8675344 32 369 47.893889599999994 369 67.5 C 369 87.1061104 350.8675344 103 328.5 103 C 306.1324656 103 288 87.1061104 288 67.5 Z"/></g><g transform="translate(-110,-22) scale(1,1)"><path fill="none" stroke="#000000" d="M 288 67.5 C 288 47.893889599999994 306.1324656 32 328.5 32 C 350.8675344 32 369 47.893889599999994 369 67.5 C 369 87.1061104 350.8675344 103 328.5 103 C 306.1324656 103 288 87.1061104 288 67.5 Z" stroke-miterlimit="10"/></g><g transform="translate(-110,-22) scale(1,1)"><g><path fill="none" stroke="none"/><text fill="#000000" stroke="none" font-family="Arial" font-size="13px" font-style="normal" font-weight="bold" text-decoration="none" x="306.10546875" y="61.5">Amosar</text><text fill="#000000" stroke="none" font-family="Arial" font-size="13px" font-style="normal" font-weight="bold" text-decoration="none" x="307.905029296875" y="74.5">lista de</text><text fill="#000000" stroke="none" font-family="Arial" font-size="13px" font-style="normal" font-weight="bold" text-decoration="none" x="314.052734375" y="87.5">POIs</text></g></g><g transform="translate(-110,-22) scale(1,1)"><path fill="#C0C0C0" stroke="none" d="M 399 114.5 C 399 94.8938896 417.1324656 79 439.5 79 C 461.8675344 79 480 94.8938896 480 114.5 C 480 134.1061104 461.8675344 150 439.5 150 C 417.1324656 150 399 134.1061104 399 114.5 Z" opacity="0.2"/></g><g transform="translate(-110,-22) scale(1,1)"><path fill="#ffffff" stroke="none" d="M 392 107.5 C 392 87.8938896 410.1324656 72 432.5 72 C 454.8675344 72 473 87.8938896 473 107.5 C 473 127.1061104 454.8675344 143 432.5 143 C 410.1324656 143 392 127.1061104 392 107.5 Z"/></g><g transform="translate(-110,-22) scale(1,1)"><path fill="none" stroke="#000000" d="M 392 107.5 C 392 87.8938896 410.1324656 72 432.5 72 C 454.8675344 72 473 87.8938896 473 107.5 C 473 127.1061104 454.8675344 143 432.5 143 C 410.1324656 143 392 127.1061104 392 107.5 Z" stroke-miterlimit="10"/></g><g transform="translate(-110,-22) scale(1,1)"><g><path fill="none" stroke="none"/><text fill="#000000" stroke="none" font-family="Arial" font-size="13px" font-style="normal" font-weight="bold" text-decoration="none" x="410.10546875" y="101.5">Amosar</text><text fill="#000000" stroke="none" font-family="Arial" font-size="13px" font-style="normal" font-weight="bold" text-decoration="none" x="412.266845703125" y="114.5">POI no</text><text fill="#000000" stroke="none" font-family="Arial" font-size="13px" font-style="normal" font-weight="bold" text-decoration="none" x="416.240478515625" y="127.5">mapa</text></g></g><g transform="translate(-110,-22) scale(1,1)"><path fill="#C0C0C0" stroke="none" d="M 493 242.5 C 493 222.8938896 519.4151968 207 552 207 C 584.5848032 207 611 222.8938896 611 242.5 C 611 262.1061104 584.5848032 278 552 278 C 519.4151968 278 493 262.1061104 493 242.5 Z" opacity="0.2"/></g><g transform="translate(-110,-22) scale(1,1)"><path fill="#ffffff" stroke="none" d="M 486 235.5 C 486 215.8938896 512.4151968 200 545 200 C 577.5848032 200 604 215.8938896 604 235.5 C 604 255.1061104 577.5848032 271 545 271 C 512.4151968 271 486 255.1061104 486 235.5 Z"/></g><g transform="translate(-110,-22) scale(1,1)"><path fill="none" stroke="#000000" d="M 486 235.5 C 486 215.8938896 512.4151968 200 545 200 C 577.5848032 200 604 215.8938896 604 235.5 C 604 255.1061104 577.5848032 271 545 271 C 512.4151968 271 486 255.1061104 486 235.5 Z" stroke-miterlimit="10"/></g><g transform="translate(-110,-22) scale(1,1)"><g><path fill="none" stroke="none"/><text fill="#000000" stroke="none" font-family="Arial" font-size="13px" font-style="normal" font-weight="bold" text-decoration="none" x="522.60546875" y="229.5">Amosar</text><text fill="#000000" stroke="none" font-family="Arial" font-size="13px" font-style="normal" font-weight="bold" text-decoration="none" x="511.40185546875" y="242.5">información</text><text fill="#000000" stroke="none" font-family="Arial" font-size="13px" font-style="normal" font-weight="bold" text-decoration="none" x="521.15185546875" y="255.5">dun POI</text></g></g><g transform="translate(-110,-22) scale(1,1)"><path fill="#C0C0C0" stroke="none" d="M 519 161 C 519 146.6405952 534.4461744 135 553.5 135 C 572.5538256 135 588 146.6405952 588 161 C 588 175.3594048 572.5538256 187 553.5 187 C 534.4461744 187 519 175.3594048 519 161 Z" opacity="0.2"/></g><g transform="translate(-110,-22) scale(1,1)"><path fill="#ffffff" stroke="none" d="M 512 154 C 512 139.6405952 527.4461744 128 546.5 128 C 565.5538256 128 581 139.6405952 581 154 C 581 168.3594048 565.5538256 180 546.5 180 C 527.4461744 180 512 168.3594048 512 154 Z"/></g><g transform="translate(-110,-22) scale(1,1)"><path fill="none" stroke="#000000" d="M 512 154 C 512 139.6405952 527.4461744 128 546.5 128 C 565.5538256 128 581 139.6405952 581 154 C 581 168.3594048 565.5538256 180 546.5 180 C 527.4461744 180 512 168.3594048 512 154 Z" stroke-miterlimit="10"/></g><g transform="translate(-110,-22) scale(1,1)"><g><path fill="none" stroke="none"/><text fill="#000000" stroke="none" font-family="Arial" font-size="13px" font-style="normal" font-weight="bold" text-decoration="none" x="530.60546875" y="154.5">Guiar</text><text fill="#000000" stroke="none" font-family="Arial" font-size="13px" font-style="normal" font-weight="bold" text-decoration="none" x="529.8818359375" y="167.5">a POI</text></g></g><g transform="translate(-110,-22) scale(1,1)"><path fill="#C0C0C0" stroke="none" d="M 575 490.5 C 575 470.8938896 600.743624 455 632.5 455 C 664.256376 455 690 470.8938896 690 490.5 C 690 510.1061104 664.256376 526 632.5 526 C 600.743624 526 575 510.1061104 575 490.5 Z" opacity="0.2"/></g><g transform="translate(-110,-22) scale(1,1)"><path fill="#ffffff" stroke="none" d="M 568 483.5 C 568 463.8938896 593.743624 448 625.5 448 C 657.256376 448 683 463.8938896 683 483.5 C 683 503.1061104 657.256376 519 625.5 519 C 593.743624 519 568 503.1061104 568 483.5 Z"/></g><g transform="translate(-110,-22) scale(1,1)"><path fill="none" stroke="#000000" d="M 568 483.5 C 568 463.8938896 593.743624 448 625.5 448 C 657.256376 448 683 463.8938896 683 483.5 C 683 503.1061104 657.256376 519 625.5 519 C 593.743624 519 568 503.1061104 568 483.5 Z" stroke-miterlimit="10"/></g><g transform="translate(-110,-22) scale(1,1)"><g><path fill="none" stroke="none"/><text fill="#000000" stroke="none" font-family="Arial" font-size="13px" font-style="normal" font-weight="bold" text-decoration="none" x="603.10546875" y="477.5">Amosar</text><text fill="#000000" stroke="none" font-family="Arial" font-size="13px" font-style="normal" font-weight="bold" text-decoration="none" x="604.905029296875" y="490.5">lista de</text><text fill="#000000" stroke="none" font-family="Arial" font-size="13px" font-style="normal" font-weight="bold" text-decoration="none" x="592.9873046875" y="503.5">percorridos</text></g></g><g transform="translate(-110,-22) scale(1,1)"><path fill="#C0C0C0" stroke="none" d="M 471 546.5 C 471 526.8938896 494.505048 511 523.5 511 C 552.494952 511 576 526.8938896 576 546.5 C 576 566.1061104 552.494952 582 523.5 582 C 494.505048 582 471 566.1061104 471 546.5 Z" opacity="0.2"/></g><g transform="translate(-110,-22) scale(1,1)"><path fill="#ffffff" stroke="none" d="M 464 539.5 C 464 519.8938896 487.505048 504 516.5 504 C 545.494952 504 569 519.8938896 569 539.5 C 569 559.1061104 545.494952 575 516.5 575 C 487.505048 575 464 559.1061104 464 539.5 Z"/></g><g transform="translate(-110,-22) scale(1,1)"><path fill="none" stroke="#000000" d="M 464 539.5 C 464 519.8938896 487.505048 504 516.5 504 C 545.494952 504 569 519.8938896 569 539.5 C 569 559.1061104 545.494952 575 516.5 575 C 487.505048 575 464 559.1061104 464 539.5 Z" stroke-miterlimit="10"/></g><g transform="translate(-110,-22) scale(1,1)"><g><path fill="none" stroke="none"/><text fill="#000000" stroke="none" font-family="Arial" font-size="13px" font-style="normal" font-weight="bold" text-decoration="none" x="494.10546875" y="533.5">Amosar</text><text fill="#000000" stroke="none" font-family="Arial" font-size="13px" font-style="normal" font-weight="bold" text-decoration="none" x="487.2373046875" y="546.5">percorrido</text><text fill="#000000" stroke="none" font-family="Arial" font-size="13px" font-style="normal" font-weight="bold" text-decoration="none" x="491.20458984375" y="559.5">no mapa</text></g></g><g transform="translate(-110,-22) scale(1,1)"><path fill="#C0C0C0" stroke="none" d="M 391 715.5 C 391 690.9233264 417.4151968 671 450 671 C 482.5848032 671 509 690.9233264 509 715.5 C 509 740.0766736 482.5848032 760 450 760 C 417.4151968 760 391 740.0766736 391 715.5 Z" opacity="0.2"/></g><g transform="translate(-110,-22) scale(1,1)"><path fill="#ffffff" stroke="none" d="M 384 708.5 C 384 683.9233264 410.4151968 664 443 664 C 475.5848032 664 502 683.9233264 502 708.5 C 502 733.0766736 475.5848032 753 443 753 C 410.4151968 753 384 733.0766736 384 708.5 Z"/></g><g transform="translate(-110,-22) scale(1,1)"><path fill="none" stroke="#000000" d="M 384 708.5 C 384 683.9233264 410.4151968 664 443 664 C 475.5848032 664 502 683.9233264 502 708.5 C 502 733.0766736 475.5848032 753 443 753 C 410.4151968 753 384 733.0766736 384 708.5 Z" stroke-miterlimit="10"/></g><g transform="translate(-110,-22) scale(1,1)"><g><path fill="none" stroke="none"/><text fill="#000000" stroke="none" font-family="Arial" font-size="13px" font-style="normal" font-weight="bold" text-decoration="none" x="420.60546875" y="696">Amosar</text><text fill="#000000" stroke="none" font-family="Arial" font-size="13px" font-style="normal" font-weight="bold" text-decoration="none" x="409.40185546875" y="709">información</text><text fill="#000000" stroke="none" font-family="Arial" font-size="13px" font-style="normal" font-weight="bold" text-decoration="none" x="432.155029296875" y="722">dun</text><text fill="#000000" stroke="none" font-family="Arial" font-size="13px" font-style="normal" font-weight="bold" text-decoration="none" x="413.7373046875" y="735">percorrido</text></g></g><g transform="translate(-110,-22) scale(1,1)"><path fill="#C0C0C0" stroke="none" d="M 495 403.5 C 495 378.9233264 513.1324656 359 535.5 359 C 557.8675344 359 576 378.9233264 576 403.5 C 576 428.0766736 557.8675344 448 535.5 448 C 513.1324656 448 495 428.0766736 495 403.5 Z" opacity="0.2"/></g><g transform="translate(-110,-22) scale(1,1)"><path fill="#ffffff" stroke="none" d="M 488 396.5 C 488 371.9233264 506.1324656 352 528.5 352 C 550.8675344 352 569 371.9233264 569 396.5 C 569 421.0766736 550.8675344 441 528.5 441 C 506.1324656 441 488 421.0766736 488 396.5 Z"/></g><g transform="translate(-110,-22) scale(1,1)"><path fill="none" stroke="#000000" d="M 488 396.5 C 488 371.9233264 506.1324656 352 528.5 352 C 550.8675344 352 569 371.9233264 569 396.5 C 569 421.0766736 550.8675344 441 528.5 441 C 506.1324656 441 488 421.0766736 488 396.5 Z" stroke-miterlimit="10"/></g><g transform="translate(-110,-22) scale(1,1)"><g><path fill="none" stroke="none"/><text fill="#000000" stroke="none" font-family="Arial" font-size="13px" font-style="normal" font-weight="bold" text-decoration="none" x="506.10546875" y="384">Amosar</text><text fill="#000000" stroke="none" font-family="Arial" font-size="13px" font-style="normal" font-weight="bold" text-decoration="none" x="511.161376953125" y="397">imaxe</text><text fill="#000000" stroke="none" font-family="Arial" font-size="13px" font-style="normal" font-weight="bold" text-decoration="none" x="517.655029296875" y="410">dun</text><text fill="#000000" stroke="none" font-family="Arial" font-size="13px" font-style="normal" font-weight="bold" text-decoration="none" x="517.302734375" y="423">POI</text></g></g><g transform="translate(-110,-22) scale(1,1)"><path fill="none" stroke="#000000" d="M 196 319 L 309 104" stroke-miterlimit="10"/></g><g transform="translate(-110,-22) scale(1,1)"><path fill="none" stroke="#000000" d="M 307.9981508404419 114.95428218832676 L 309 104 L 300.54573844715355 111.0374328839473" stroke-miterlimit="10"/></g><g transform="translate(-110,-22) scale(1,1)"><path fill="none" stroke="#000000" d="M 216 319 L 394 144" stroke-miterlimit="10"/></g><g transform="translate(-110,-22) scale(1,1)"><path fill="none" stroke="#000000" d="M 389.7042690311832 154.1265342266517 L 394 144 L 383.8019184802135 148.12300052337966" stroke-miterlimit="10"/></g><g transform="translate(-110,-22) scale(1,1)"><path fill="none" stroke="#000000" d="M 232 328 L 511 173" stroke-miterlimit="10"/></g><g transform="translate(-110,-22) scale(1,1)"><path fill="none" stroke="#000000" d="M 504.1605463702305 181.61521178185617 L 511 173 L 500.07190128647034 174.2556506310878" stroke-miterlimit="10"/></g><g transform="translate(-110,-22) scale(1,1)"><path fill="none" stroke="#000000" d="M 232 340 L 485 255" stroke-miterlimit="10"/></g><g transform="translate(-110,-22) scale(1,1)"><path fill="none" stroke="#000000" d="M 476.7071084970425 262.22689079204713 L 485 255 L 474.0258566966633 254.24622366856556" stroke-miterlimit="10"/></g><g transform="translate(-110,-22) scale(1,1)"><path fill="none" stroke="#000000" d="M 232 365 L 487 392" stroke-miterlimit="10"/></g><g transform="translate(-110,-22) scale(1,1)"><path fill="none" stroke="#000000" d="M 476.45058182499156 395.1160513745447 L 487 392 L 477.3370538134127 386.74381592834516" stroke-miterlimit="10"/></g><g transform="translate(-110,-22) scale(1,1)"><path fill="none" stroke="#000000" d="M 232 375 L 567 467" stroke-miterlimit="10"/></g><g transform="translate(-110,-22) scale(1,1)"><path fill="none" stroke="#000000" d="M 556.085387095965 468.36792732082904 L 567 467 L 558.3149325168021 460.2494738862592" stroke-miterlimit="10"/></g><g transform="translate(-110,-22) scale(1,1)"><path fill="none" stroke="#000000" d="M 232 389 L 463 511" stroke-miterlimit="10"/></g><g transform="translate(-110,-22) scale(1,1)"><path fill="none" stroke="#000000" d="M 452.04774499567986 509.97622740789524 L 463 511 L 455.97950275943117 502.53166967489074" stroke-miterlimit="10"/></g><g transform="translate(-110,-22) scale(1,1)"><path fill="none" stroke="#000000" d="M 206 400 L 408 663" stroke-miterlimit="10"/></g><g transform="translate(-110,-22) scale(1,1)"><path fill="none" stroke="#000000" d="M 398.47118207229465 657.5043991319745 L 408 663 L 405.1480848671031 652.3761315861522" stroke-miterlimit="10"/></g><g transform="translate(-110,-22) scale(1,1)"><path fill="#C0C0C0" stroke="none" d="M 591 332.5 C 591 302.9527632 609.1324656 279 631.5 279 C 653.8675344 279 672 302.9527632 672 332.5 C 672 362.0472368 653.8675344 386 631.5 386 C 609.1324656 386 591 362.0472368 591 332.5 Z" opacity="0.2"/></g><g transform="translate(-110,-22) scale(1,1)"><path fill="#ffffff" stroke="none" d="M 584 325.5 C 584 295.9527632 602.1324656 272 624.5 272 C 646.8675344 272 665 295.9527632 665 325.5 C 665 355.0472368 646.8675344 379 624.5 379 C 602.1324656 379 584 355.0472368 584 325.5 Z"/></g><g transform="translate(-110,-22) scale(1,1)"><path fill="none" stroke="#000000" d="M 584 325.5 C 584 295.9527632 602.1324656 272 624.5 272 C 646.8675344 272 665 295.9527632 665 325.5 C 665 355.0472368 646.8675344 379 624.5 379 C 602.1324656 379 584 355.0472368 584 325.5 Z" stroke-miterlimit="10"/></g><g transform="translate(-110,-22) scale(1,1)"><g><path fill="none" stroke="none"/><text fill="#000000" stroke="none" font-family="Arial" font-size="13px" font-style="normal" font-weight="bold" text-decoration="none" x="602.10546875" y="306.5">Amosar</text><text fill="#000000" stroke="none" font-family="Arial" font-size="13px" font-style="normal" font-weight="bold" text-decoration="none" x="612.94091796875" y="319.5">lista</text><text fill="#000000" stroke="none" font-family="Arial" font-size="13px" font-style="normal" font-weight="bold" text-decoration="none" x="603.911376953125" y="332.5">imaxes</text><text fill="#000000" stroke="none" font-family="Arial" font-size="13px" font-style="normal" font-weight="bold" text-decoration="none" x="613.655029296875" y="345.5">dun</text><text fill="#000000" stroke="none" font-family="Arial" font-size="13px" font-style="normal" font-weight="bold" text-decoration="none" x="613.302734375" y="358.5">POI</text></g></g><g transform="translate(-110,-22) scale(1,1)"><path fill="none" stroke="#000000" d="M 232 355 L 583 328" stroke-miterlimit="10"/></g><g transform="translate(-110,-22) scale(1,1)"><path fill="none" stroke="#000000" d="M 573.1901147223913 332.97656014131803 L 583 328 L 572.5444041746322 324.58232302044945" stroke-miterlimit="10"/></g><g transform="translate(-110,-22) scale(1,1)"><path fill="#C0C0C0" stroke="none" d="M 503 642.5 C 503 622.8938896 526.505048 607 555.5 607 C 584.494952 607 608 622.8938896 608 642.5 C 608 662.1061104 584.494952 678 555.5 678 C 526.505048 678 503 662.1061104 503 642.5 Z" opacity="0.2"/></g><g transform="translate(-110,-22) scale(1,1)"><path fill="#ffffff" stroke="none" d="M 496 635.5 C 496 615.8938896 519.505048 600 548.5 600 C 577.494952 600 601 615.8938896 601 635.5 C 601 655.1061104 577.494952 671 548.5 671 C 519.505048 671 496 655.1061104 496 635.5 Z"/></g><g transform="translate(-110,-22) scale(1,1)"><path fill="none" stroke="#000000" d="M 496 635.5 C 496 615.8938896 519.505048 600 548.5 600 C 577.494952 600 601 615.8938896 601 635.5 C 601 655.1061104 577.494952 671 548.5 671 C 519.505048 671 496 655.1061104 496 635.5 Z" stroke-miterlimit="10"/></g><g transform="translate(-110,-22) scale(1,1)"><g><path fill="none" stroke="none"/><text fill="#000000" stroke="none" font-family="Arial" font-size="13px" font-style="normal" font-weight="bold" text-decoration="none" x="527.1845703125" y="629.5">Guiar a</text><text fill="#000000" stroke="none" font-family="Arial" font-size="13px" font-style="normal" font-weight="bold" text-decoration="none" x="521.763671875" y="642.5">través de</text><text fill="#000000" stroke="none" font-family="Arial" font-size="13px" font-style="normal" font-weight="bold" text-decoration="none" x="519.2373046875" y="655.5">percorrido</text></g></g><g transform="translate(-110,-22) scale(1,1)"><path fill="none" stroke="#000000" d="M 230 400 L 499 599" stroke-miterlimit="10"/></g><g transform="translate(-110,-22) scale(1,1)"><path fill="none" stroke="#000000" d="M 488.32643044167634 596.340129160349 L 499 599 L 493.33345929364066 589.5718338780454" stroke-miterlimit="10"/></g></g></svg>