<svg version="1.1" xmlns="http://www.w3.org/2000/svg" xmlns:xlink="http://www.w3.org/1999/xlink" width="489" height="627"><defs/><g><g transform="translate(-126,-78) scale(1,1)"><path fill="#ffffff" stroke="none" d="M 155.28801242897728 337.68 C 155.28801242897728 332.886167936 159.17385475392274 329 163.96728515625 329 C 168.76071555857726 329 172.64655788352272 332.886167936 172.64655788352272 337.68 C 172.64655788352272 342.473832064 168.76071555857726 346.36 163.96728515625 346.36 C 159.17385475392274 346.36 155.28801242897728 342.473832064 155.28801242897728 337.68 Z"/></g><g transform="translate(-126,-78) scale(1,1)"><path fill="none" stroke="#000000" d="M 155.28801242897728 337.68 C 155.28801242897728 332.886167936 159.17385475392274 329 163.96728515625 329 C 168.76071555857726 329 172.64655788352272 332.886167936 172.64655788352272 337.68 C 172.64655788352272 342.473832064 168.76071555857726 346.36 163.96728515625 346.36 C 159.17385475392274 346.36 155.28801242897728 342.473832064 155.28801242897728 337.68 Z" stroke-miterlimit="10"/></g><g transform="translate(-126,-78) scale(1,1)"><path fill="none" stroke="#000000" d="M 163.96728515625 346.36 L 163.96728515625 363.64" stroke-miterlimit="10"/></g><g transform="translate(-126,-78) scale(1,1)"><path fill="none" stroke="#000000" d="M 154.77746697443183 352.84 L 173.15710333806817 352.84" stroke-miterlimit="10"/></g><g transform="translate(-126,-78) scale(1,1)"><path fill="none" stroke="#000000" d="M 163.96728515625 363.64 L 151.20364879261365 381" stroke-miterlimit="10"/></g><g transform="translate(-126,-78) scale(1,1)"><path fill="none" stroke="#000000" d="M 163.96728515625 363.64 L 176.73092151988635 381" stroke-miterlimit="10"/></g><g transform="translate(-126,-78) scale(1,1)"><g><path fill="none" stroke="none"/><text fill="#000000" stroke="none" font-family="Arial" font-size="13px" font-style="normal" font-weight="bold" text-decoration="none" x="145.181396484375" y="401.5">Xestor</text><text fill="#000000" stroke="none" font-family="Arial" font-size="13px" font-style="normal" font-weight="bold" text-decoration="none" x="143.00732421875" y="414.5">contido</text></g></g><g transform="translate(-126,-78) scale(1,1)"><path fill="#C0C0C0" stroke="none" d="M 367 452 C 367 437.6405952 382.4461744 426 401.5 426 C 420.5538256 426 436 437.6405952 436 452 C 436 466.3594048 420.5538256 478 401.5 478 C 382.4461744 478 367 466.3594048 367 452 Z" opacity="0.2"/></g><g transform="translate(-126,-78) scale(1,1)"><path fill="#ffffff" stroke="none" d="M 360 445 C 360 430.6405952 375.4461744 419 394.5 419 C 413.5538256 419 429 430.6405952 429 445 C 429 459.3594048 413.5538256 471 394.5 471 C 375.4461744 471 360 459.3594048 360 445 Z"/></g><g transform="translate(-126,-78) scale(1,1)"><path fill="none" stroke="#000000" d="M 360 445 C 360 430.6405952 375.4461744 419 394.5 419 C 413.5538256 419 429 430.6405952 429 445 C 429 459.3594048 413.5538256 471 394.5 471 C 375.4461744 471 360 459.3594048 360 445 Z" stroke-miterlimit="10"/></g><g transform="translate(-126,-78) scale(1,1)"><g><path fill="none" stroke="none"/><text fill="#000000" stroke="none" font-family="Arial" font-size="13px" font-style="normal" font-weight="bold" text-decoration="none" x="378.246826171875" y="445.5">Crear</text><text fill="#000000" stroke="none" font-family="Arial" font-size="13px" font-style="normal" font-weight="bold" text-decoration="none" x="383.302734375" y="458.5">POI</text></g></g><g transform="translate(-126,-78) scale(1,1)"><path fill="#C0C0C0" stroke="none" d="M 423 337 C 423 322.6405952 444.4903296 311 471 311 C 497.5096704 311 519 322.6405952 519 337 C 519 351.3594048 497.5096704 363 471 363 C 444.4903296 363 423 351.3594048 423 337 Z" opacity="0.2"/></g><g transform="translate(-126,-78) scale(1,1)"><path fill="#ffffff" stroke="none" d="M 416 330 C 416 315.6405952 437.4903296 304 464 304 C 490.5096704 304 512 315.6405952 512 330 C 512 344.3594048 490.5096704 356 464 356 C 437.4903296 356 416 344.3594048 416 330 Z"/></g><g transform="translate(-126,-78) scale(1,1)"><path fill="none" stroke="#000000" d="M 416 330 C 416 315.6405952 437.4903296 304 464 304 C 490.5096704 304 512 315.6405952 512 330 C 512 344.3594048 490.5096704 356 464 356 C 437.4903296 356 416 344.3594048 416 330 Z" stroke-miterlimit="10"/></g><g transform="translate(-126,-78) scale(1,1)"><g><path fill="none" stroke="none"/><text fill="#000000" stroke="none" font-family="Arial" font-size="13px" font-style="normal" font-weight="bold" text-decoration="none" x="436.5400390625" y="330.5">Xestionar</text><text fill="#000000" stroke="none" font-family="Arial" font-size="13px" font-style="normal" font-weight="bold" text-decoration="none" x="449.552734375" y="343.5">POIs</text></g></g><g transform="translate(-126,-78) scale(1,1)"><path fill="#C0C0C0" stroke="none" d="M 451 452 C 451 437.6405952 466.4461744 426 485.5 426 C 504.5538256 426 520 437.6405952 520 452 C 520 466.3594048 504.5538256 478 485.5 478 C 466.4461744 478 451 466.3594048 451 452 Z" opacity="0.2"/></g><g transform="translate(-126,-78) scale(1,1)"><path fill="#ffffff" stroke="none" d="M 444 445 C 444 430.6405952 459.4461744 419 478.5 419 C 497.5538256 419 513 430.6405952 513 445 C 513 459.3594048 497.5538256 471 478.5 471 C 459.4461744 471 444 459.3594048 444 445 Z"/></g><g transform="translate(-126,-78) scale(1,1)"><path fill="none" stroke="#000000" d="M 444 445 C 444 430.6405952 459.4461744 419 478.5 419 C 497.5538256 419 513 430.6405952 513 445 C 513 459.3594048 497.5538256 471 478.5 471 C 459.4461744 471 444 459.3594048 444 445 Z" stroke-miterlimit="10"/></g><g transform="translate(-126,-78) scale(1,1)"><g><path fill="none" stroke="none"/><text fill="#000000" stroke="none" font-family="Arial" font-size="13px" font-style="normal" font-weight="bold" text-decoration="none" x="461.52001953125" y="445.5">Editar</text><text fill="#000000" stroke="none" font-family="Arial" font-size="13px" font-style="normal" font-weight="bold" text-decoration="none" x="467.302734375" y="458.5">POI</text></g></g><g transform="translate(-126,-78) scale(1,1)"><path fill="#C0C0C0" stroke="none" d="M 543 452 C 543 437.6405952 558.4461744 426 577.5 426 C 596.5538256 426 612 437.6405952 612 452 C 612 466.3594048 596.5538256 478 577.5 478 C 558.4461744 478 543 466.3594048 543 452 Z" opacity="0.2"/></g><g transform="translate(-126,-78) scale(1,1)"><path fill="#ffffff" stroke="none" d="M 536 445 C 536 430.6405952 551.4461744 419 570.5 419 C 589.5538256 419 605 430.6405952 605 445 C 605 459.3594048 589.5538256 471 570.5 471 C 551.4461744 471 536 459.3594048 536 445 Z"/></g><g transform="translate(-126,-78) scale(1,1)"><path fill="none" stroke="#000000" d="M 536 445 C 536 430.6405952 551.4461744 419 570.5 419 C 589.5538256 419 605 430.6405952 605 445 C 605 459.3594048 589.5538256 471 570.5 471 C 551.4461744 471 536 459.3594048 536 445 Z" stroke-miterlimit="10"/></g><g transform="translate(-126,-78) scale(1,1)"><g><path fill="none" stroke="none"/><text fill="#000000" stroke="none" font-family="Arial" font-size="13px" font-style="normal" font-weight="bold" text-decoration="none" x="552.44091796875" y="445.5">Borrar</text><text fill="#000000" stroke="none" font-family="Arial" font-size="13px" font-style="normal" font-weight="bold" text-decoration="none" x="559.302734375" y="458.5">POI</text></g></g><g transform="translate(-126,-78) scale(1,1)"><path fill="none" stroke="#000000" d="M 410 418 L 448 357" stroke-miterlimit="10"/></g><g transform="translate(-126,-78) scale(1,1)"><path fill="#FFFFFF" stroke="none" d="M 444.3989208124746 378.70327691122174 L 448 357 L 430.10711820901673 369.8001867648054"/></g><g transform="translate(-126,-78) scale(1,1)"><path fill="none" stroke="#000000" d="M 444.3989208124746 378.70327691122174 L 448 357 L 430.10711820901673 369.8001867648054 L 444.3989208124746 378.70327691122174" stroke-miterlimit="10"/></g><g transform="translate(-126,-78) scale(1,1)"><path fill="none" stroke="#000000" d="M 475 418 L 467 357" stroke-miterlimit="10"/></g><g transform="translate(-126,-78) scale(1,1)"><path fill="#FFFFFF" stroke="none" d="M 477.99054122150073 376.0580167818819 L 467 357 L 461.29543332419775 378.2475391290692"/></g><g transform="translate(-126,-78) scale(1,1)"><path fill="none" stroke="#000000" d="M 477.99054122150073 376.0580167818819 L 467 357 L 461.29543332419775 378.2475391290692 L 477.99054122150073 376.0580167818819" stroke-miterlimit="10"/></g><g transform="translate(-126,-78) scale(1,1)"><path fill="none" stroke="#000000" d="M 545 418 L 489 357" stroke-miterlimit="10"/></g><g transform="translate(-126,-78) scale(1,1)"><path fill="#FFFFFF" stroke="none" d="M 508.9473554148051 366.27917086573177 L 489 357 L 496.5435456375993 377.6662749234945"/></g><g transform="translate(-126,-78) scale(1,1)"><path fill="none" stroke="#000000" d="M 508.9473554148051 366.27917086573177 L 489 357 L 496.5435456375993 377.6662749234945 L 508.9473554148051 366.27917086573177" stroke-miterlimit="10"/></g><g transform="translate(-126,-78) scale(1,1)"><path fill="#C0C0C0" stroke="none" d="M 391 148.5 C 391 118.95276319999999 410.4756112 95 434.5 95 C 458.5243888 95 478 118.95276319999999 478 148.5 C 478 178.0472368 458.5243888 202 434.5 202 C 410.4756112 202 391 178.0472368 391 148.5 Z" opacity="0.2"/></g><g transform="translate(-126,-78) scale(1,1)"><path fill="#ffffff" stroke="none" d="M 384 141.5 C 384 111.95276319999999 403.4756112 88 427.5 88 C 451.5243888 88 471 111.95276319999999 471 141.5 C 471 171.0472368 451.5243888 195 427.5 195 C 403.4756112 195 384 171.0472368 384 141.5 Z"/></g><g transform="translate(-126,-78) scale(1,1)"><path fill="none" stroke="#000000" d="M 384 141.5 C 384 111.95276319999999 403.4756112 88 427.5 88 C 451.5243888 88 471 111.95276319999999 471 141.5 C 471 171.0472368 451.5243888 195 427.5 195 C 403.4756112 195 384 171.0472368 384 141.5 Z" stroke-miterlimit="10"/></g><g transform="translate(-126,-78) scale(1,1)"><g><path fill="none" stroke="none"/><text fill="#000000" stroke="none" font-family="Arial" font-size="13px" font-style="normal" font-weight="bold" text-decoration="none" x="419.194091796875" y="122.5">Os</text><text fill="#000000" stroke="none" font-family="Arial" font-size="13px" font-style="normal" font-weight="bold" text-decoration="none" x="402.94091796875" y="135.5">mesmos</text><text fill="#000000" stroke="none" font-family="Arial" font-size="13px" font-style="normal" font-weight="bold" text-decoration="none" x="411.234130859375" y="148.5">que o</text><text fill="#000000" stroke="none" font-family="Arial" font-size="13px" font-style="normal" font-weight="bold" text-decoration="none" x="406.181396484375" y="161.5">usuario</text><text fill="#000000" stroke="none" font-family="Arial" font-size="13px" font-style="normal" font-weight="bold" text-decoration="none" x="405.095947265625" y="174.5">Android</text></g></g><g transform="translate(-126,-78) scale(1,1)"><path fill="none" stroke="#000000" d="M 193 348 L 383 180" stroke-miterlimit="10"/></g><g transform="translate(-126,-78) scale(1,1)"><path fill="none" stroke="#000000" d="M 378.17506221553833 189.88534143952924 L 383 180 L 372.59826180756846 183.57824574003948" stroke-miterlimit="10"/></g><g transform="translate(-126,-78) scale(1,1)"><path fill="none" stroke="#000000" d="M 193 370 L 415 337" stroke-miterlimit="10"/></g><g transform="translate(-126,-78) scale(1,1)"><path fill="none" stroke="#000000" d="M 405.5667157244344 342.6580162403767 L 415 337 L 404.32883906825316 334.3304823715211" stroke-miterlimit="10"/></g><g transform="translate(-126,-78) scale(1,1)"><path fill="#C0C0C0" stroke="none" d="M 407 545 C 407 530.6405952 428.4903296 519 455 519 C 481.5096704 519 503 530.6405952 503 545 C 503 559.3594048 481.5096704 571 455 571 C 428.4903296 571 407 559.3594048 407 545 Z" opacity="0.2"/></g><g transform="translate(-126,-78) scale(1,1)"><path fill="#ffffff" stroke="none" d="M 400 538 C 400 523.6405952 421.4903296 512 448 512 C 474.5096704 512 496 523.6405952 496 538 C 496 552.3594048 474.5096704 564 448 564 C 421.4903296 564 400 552.3594048 400 538 Z"/></g><g transform="translate(-126,-78) scale(1,1)"><path fill="none" stroke="#000000" d="M 400 538 C 400 523.6405952 421.4903296 512 448 512 C 474.5096704 512 496 523.6405952 496 538 C 496 552.3594048 474.5096704 564 448 564 C 421.4903296 564 400 552.3594048 400 538 Z" stroke-miterlimit="10"/></g><g transform="translate(-126,-78) scale(1,1)"><g><path fill="none" stroke="none"/><text fill="#000000" stroke="none" font-family="Arial" font-size="13px" font-style="normal" font-weight="bold" text-decoration="none" x="420.5400390625" y="538.5">Xestionar</text><text fill="#000000" stroke="none" font-family="Arial" font-size="13px" font-style="normal" font-weight="bold" text-decoration="none" x="427.411376953125" y="551.5">imaxes</text></g></g><g transform="translate(-126,-78) scale(1,1)"><path fill="#C0C0C0" stroke="none" d="M 311 657 C 311 642.6405952 329.1324656 631 351.5 631 C 373.8675344 631 392 642.6405952 392 657 C 392 671.3594048 373.8675344 683 351.5 683 C 329.1324656 683 311 671.3594048 311 657 Z" opacity="0.2"/></g><g transform="translate(-126,-78) scale(1,1)"><path fill="#ffffff" stroke="none" d="M 304 650 C 304 635.6405952 322.1324656 624 344.5 624 C 366.8675344 624 385 635.6405952 385 650 C 385 664.3594048 366.8675344 676 344.5 676 C 322.1324656 676 304 664.3594048 304 650 Z"/></g><g transform="translate(-126,-78) scale(1,1)"><path fill="none" stroke="#000000" d="M 304 650 C 304 635.6405952 322.1324656 624 344.5 624 C 366.8675344 624 385 635.6405952 385 650 C 385 664.3594048 366.8675344 676 344.5 676 C 322.1324656 676 304 664.3594048 304 650 Z" stroke-miterlimit="10"/></g><g transform="translate(-126,-78) scale(1,1)"><g><path fill="none" stroke="none"/><text fill="#000000" stroke="none" font-family="Arial" font-size="13px" font-style="normal" font-weight="bold" text-decoration="none" x="322.095947265625" y="650.5">Engadir</text><text fill="#000000" stroke="none" font-family="Arial" font-size="13px" font-style="normal" font-weight="bold" text-decoration="none" x="327.161376953125" y="663.5">imaxe</text></g></g><g transform="translate(-126,-78) scale(1,1)"><path fill="#C0C0C0" stroke="none" d="M 415 666.5 C 415 646.8938896 436.0426144 631 462 631 C 487.9573856 631 509 646.8938896 509 666.5 C 509 686.1061104 487.9573856 702 462 702 C 436.0426144 702 415 686.1061104 415 666.5 Z" opacity="0.2"/></g><g transform="translate(-126,-78) scale(1,1)"><path fill="#ffffff" stroke="none" d="M 408 659.5 C 408 639.8938896 429.0426144 624 455 624 C 480.9573856 624 502 639.8938896 502 659.5 C 502 679.1061104 480.9573856 695 455 695 C 429.0426144 695 408 679.1061104 408 659.5 Z"/></g><g transform="translate(-126,-78) scale(1,1)"><path fill="none" stroke="#000000" d="M 408 659.5 C 408 639.8938896 429.0426144 624 455 624 C 480.9573856 624 502 639.8938896 502 659.5 C 502 679.1061104 480.9573856 695 455 695 C 429.0426144 695 408 679.1061104 408 659.5 Z" stroke-miterlimit="10"/></g><g transform="translate(-126,-78) scale(1,1)"><g><path fill="none" stroke="none"/><text fill="#000000" stroke="none" font-family="Arial" font-size="13px" font-style="normal" font-weight="bold" text-decoration="none" x="428.6318359375" y="653.5">Modificar</text><text fill="#000000" stroke="none" font-family="Arial" font-size="13px" font-style="normal" font-weight="bold" text-decoration="none" x="439.09912109375" y="666.5">datos</text><text fill="#000000" stroke="none" font-family="Arial" font-size="13px" font-style="normal" font-weight="bold" text-decoration="none" x="437.661376953125" y="679.5">imaxe</text></g></g><g transform="translate(-126,-78) scale(1,1)"><path fill="#C0C0C0" stroke="none" d="M 527 657 C 527 642.6405952 546.027896 631 569.5 631 C 592.972104 631 612 642.6405952 612 657 C 612 671.3594048 592.972104 683 569.5 683 C 546.027896 683 527 671.3594048 527 657 Z" opacity="0.2"/></g><g transform="translate(-126,-78) scale(1,1)"><path fill="#ffffff" stroke="none" d="M 520 650 C 520 635.6405952 539.027896 624 562.5 624 C 585.972104 624 605 635.6405952 605 650 C 605 664.3594048 585.972104 676 562.5 676 C 539.027896 676 520 664.3594048 520 650 Z"/></g><g transform="translate(-126,-78) scale(1,1)"><path fill="none" stroke="#000000" d="M 520 650 C 520 635.6405952 539.027896 624 562.5 624 C 585.972104 624 605 635.6405952 605 650 C 605 664.3594048 585.972104 676 562.5 676 C 539.027896 676 520 664.3594048 520 650 Z" stroke-miterlimit="10"/></g><g transform="translate(-126,-78) scale(1,1)"><g><path fill="none" stroke="none"/><text fill="#000000" stroke="none" font-family="Arial" font-size="13px" font-style="normal" font-weight="bold" text-decoration="none" x="539.023193359375" y="650.5">Eliminar</text><text fill="#000000" stroke="none" font-family="Arial" font-size="13px" font-style="normal" font-weight="bold" text-decoration="none" x="545.161376953125" y="663.5">imaxe</text></g></g><g transform="translate(-126,-78) scale(1,1)"><path fill="none" stroke="#000000" d="M 193 391 L 401 511" stroke-miterlimit="10"/></g><g transform="translate(-126,-78) scale(1,1)"><path fill="none" stroke="#000000" d="M 390.0936469815832 509.56770679060793 L 401 511 L 394.3008280636717 502.2752595816545" stroke-miterlimit="10"/></g><g transform="translate(-126,-78) scale(1,1)"><path fill="none" stroke="#000000" d="M 369 623 L 423 565" stroke-miterlimit="10"/></g><g transform="translate(-126,-78) scale(1,1)"><path fill="#FFFFFF" stroke="none" d="M 415.31177147937956 585.6128877699055 L 423 565 L 402.98808875582006 574.1391141996949"/></g><g transform="translate(-126,-78) scale(1,1)"><path fill="none" stroke="#000000" d="M 415.31177147937956 585.6128877699055 L 423 565 L 402.98808875582006 574.1391141996949 L 415.31177147937956 585.6128877699055" stroke-miterlimit="10"/></g><g transform="translate(-126,-78) scale(1,1)"><path fill="none" stroke="#000000" d="M 453 623 L 450 565" stroke-miterlimit="10"/></g><g transform="translate(-126,-78) scale(1,1)"><path fill="#FFFFFF" stroke="none" d="M 459.4577036487464 584.8633290687259 L 450 565 L 442.64211170304543 585.7331010659173"/></g><g transform="translate(-126,-78) scale(1,1)"><path fill="none" stroke="#000000" d="M 459.4577036487464 584.8633290687259 L 450 565 L 442.64211170304543 585.7331010659173 L 459.4577036487464 584.8633290687259" stroke-miterlimit="10"/></g><g transform="translate(-126,-78) scale(1,1)"><path fill="none" stroke="#000000" d="M 535 623 L 475 565" stroke-miterlimit="10"/></g><g transform="translate(-126,-78) scale(1,1)"><path fill="#FFFFFF" stroke="none" d="M 495.4651058994025 573.0733785075545 L 475 565 L 483.76227446939083 585.1797558489458"/></g><g transform="translate(-126,-78) scale(1,1)"><path fill="none" stroke="#000000" d="M 495.4651058994025 573.0733785075545 L 475 565 L 483.76227446939083 585.1797558489458 L 495.4651058994025 573.0733785075545" stroke-miterlimit="10"/></g><g transform="translate(-126,-78) scale(1,1)"><path fill="#C0C0C0" stroke="none" d="M 431 242.5 C 431 222.8938896 448.908608 207 471 207 C 493.091392 207 511 222.8938896 511 242.5 C 511 262.1061104 493.091392 278 471 278 C 448.908608 278 431 262.1061104 431 242.5 Z" opacity="0.2"/></g><g transform="translate(-126,-78) scale(1,1)"><path fill="#ffffff" stroke="none" d="M 424 235.5 C 424 215.8938896 441.908608 200 464 200 C 486.091392 200 504 215.8938896 504 235.5 C 504 255.1061104 486.091392 271 464 271 C 441.908608 271 424 255.1061104 424 235.5 Z"/></g><g transform="translate(-126,-78) scale(1,1)"><path fill="none" stroke="#000000" d="M 424 235.5 C 424 215.8938896 441.908608 200 464 200 C 486.091392 200 504 215.8938896 504 235.5 C 504 255.1061104 486.091392 271 464 271 C 441.908608 271 424 255.1061104 424 235.5 Z" stroke-miterlimit="10"/></g><g transform="translate(-126,-78) scale(1,1)"><g><path fill="none" stroke="none"/><text fill="#000000" stroke="none" font-family="Arial" font-size="13px" font-style="normal" font-weight="bold" text-decoration="none" x="441.970458984375" y="229.5">Estimar</text><text fill="#000000" stroke="none" font-family="Arial" font-size="13px" font-style="normal" font-weight="bold" text-decoration="none" x="445.9345703125" y="242.5">tempo</text><text fill="#000000" stroke="none" font-family="Arial" font-size="13px" font-style="normal" font-weight="bold" text-decoration="none" x="452.802734375" y="255.5">POI</text></g></g><g transform="translate(-126,-78) scale(1,1)"><path fill="none" stroke="#000000" d="M 193 360 L 423 254" stroke-miterlimit="10"/></g><g transform="translate(-126,-78) scale(1,1)"><path fill="none" stroke="#000000" d="M 415.5322808105518 262.07670539932883 L 423 254 L 412.00843196363286 254.43061827865566" stroke-miterlimit="10"/></g></g></svg>