<svg version="1.1" xmlns="http://www.w3.org/2000/svg" xmlns:xlink="http://www.w3.org/1999/xlink" width="493" height="475"><defs/><g><g transform="translate(-230,-54) scale(1,1)"><path fill="#ffffff" stroke="none" d="M 304.80070774147725 249.68 C 304.80070774147725 244.886167936 308.68655006642274 241 313.47998046875 241 C 318.27341087107726 241 322.15925319602275 244.886167936 322.15925319602275 249.68 C 322.15925319602275 254.47383206400002 318.27341087107726 258.36 313.47998046875 258.36 C 308.68655006642274 258.36 304.80070774147725 254.47383206400002 304.80070774147725 249.68 Z"/></g><g transform="translate(-230,-54) scale(1,1)"><path fill="none" stroke="#000000" d="M 304.80070774147725 249.68 C 304.80070774147725 244.886167936 308.68655006642274 241 313.47998046875 241 C 318.27341087107726 241 322.15925319602275 244.886167936 322.15925319602275 249.68 C 322.15925319602275 254.47383206400002 318.27341087107726 258.36 313.47998046875 258.36 C 308.68655006642274 258.36 304.80070774147725 254.47383206400002 304.80070774147725 249.68 Z" stroke-miterlimit="10"/></g><g transform="translate(-230,-54) scale(1,1)"><path fill="none" stroke="#000000" d="M 313.47998046875 258.36 L 313.47998046875 275.64" stroke-miterlimit="10"/></g><g transform="translate(-230,-54) scale(1,1)"><path fill="none" stroke="#000000" d="M 304.29016228693183 264.84 L 322.66979865056817 264.84" stroke-miterlimit="10"/></g><g transform="translate(-230,-54) scale(1,1)"><path fill="none" stroke="#000000" d="M 313.47998046875 275.64 L 300.71634410511365 293" stroke-miterlimit="10"/></g><g transform="translate(-230,-54) scale(1,1)"><path fill="none" stroke="#000000" d="M 313.47998046875 275.64 L 326.24361683238635 293" stroke-miterlimit="10"/></g><g transform="translate(-230,-54) scale(1,1)"><g><path fill="none" stroke="none"/><text fill="#000000" stroke="none" font-family="Arial" font-size="13px" font-style="normal" font-weight="bold" text-decoration="none" x="271.92822265625" y="313.5">Xestor contido</text></g></g><g transform="translate(-230,-54) scale(1,1)"><path fill="#C0C0C0" stroke="none" d="M 375 489 C 375 474.6405952 398.505048 463 427.5 463 C 456.494952 463 480 474.6405952 480 489 C 480 503.3594048 456.494952 515 427.5 515 C 398.505048 515 375 503.3594048 375 489 Z" opacity="0.2"/></g><g transform="translate(-230,-54) scale(1,1)"><path fill="#ffffff" stroke="none" d="M 368 482 C 368 467.6405952 391.505048 456 420.5 456 C 449.494952 456 473 467.6405952 473 482 C 473 496.3594048 449.494952 508 420.5 508 C 391.505048 508 368 496.3594048 368 482 Z"/></g><g transform="translate(-230,-54) scale(1,1)"><path fill="none" stroke="#000000" d="M 368 482 C 368 467.6405952 391.505048 456 420.5 456 C 449.494952 456 473 467.6405952 473 482 C 473 496.3594048 449.494952 508 420.5 508 C 391.505048 508 368 496.3594048 368 482 Z" stroke-miterlimit="10"/></g><g transform="translate(-230,-54) scale(1,1)"><g><path fill="none" stroke="none"/><text fill="#000000" stroke="none" font-family="Arial" font-size="13px" font-style="normal" font-weight="bold" text-decoration="none" x="404.246826171875" y="482.5">Crear</text><text fill="#000000" stroke="none" font-family="Arial" font-size="13px" font-style="normal" font-weight="bold" text-decoration="none" x="391.2373046875" y="495.5">percorrido</text></g></g><g transform="translate(-230,-54) scale(1,1)"><path fill="#C0C0C0" stroke="none" d="M 487 490.5 C 487 470.8938896 513.4151968 455 546 455 C 578.5848032 455 605 470.8938896 605 490.5 C 605 510.1061104 578.5848032 526 546 526 C 513.4151968 526 487 510.1061104 487 490.5 Z" opacity="0.2"/></g><g transform="translate(-230,-54) scale(1,1)"><path fill="#ffffff" stroke="none" d="M 480 483.5 C 480 463.8938896 506.4151968 448 539 448 C 571.5848032 448 598 463.8938896 598 483.5 C 598 503.1061104 571.5848032 519 539 519 C 506.4151968 519 480 503.1061104 480 483.5 Z"/></g><g transform="translate(-230,-54) scale(1,1)"><path fill="none" stroke="#000000" d="M 480 483.5 C 480 463.8938896 506.4151968 448 539 448 C 571.5848032 448 598 463.8938896 598 483.5 C 598 503.1061104 571.5848032 519 539 519 C 506.4151968 519 480 503.1061104 480 483.5 Z" stroke-miterlimit="10"/></g><g transform="translate(-230,-54) scale(1,1)"><g><path fill="none" stroke="none"/><text fill="#000000" stroke="none" font-family="Arial" font-size="13px" font-style="normal" font-weight="bold" text-decoration="none" x="512.6318359375" y="477.5">Modificar</text><text fill="#000000" stroke="none" font-family="Arial" font-size="13px" font-style="normal" font-weight="bold" text-decoration="none" x="505.40185546875" y="490.5">información</text><text fill="#000000" stroke="none" font-family="Arial" font-size="13px" font-style="normal" font-weight="bold" text-decoration="none" x="509.7373046875" y="503.5">percorrido</text></g></g><g transform="translate(-230,-54) scale(1,1)"><path fill="#C0C0C0" stroke="none" d="M 615 489 C 615 474.6405952 638.505048 463 667.5 463 C 696.494952 463 720 474.6405952 720 489 C 720 503.3594048 696.494952 515 667.5 515 C 638.505048 515 615 503.3594048 615 489 Z" opacity="0.2"/></g><g transform="translate(-230,-54) scale(1,1)"><path fill="#ffffff" stroke="none" d="M 608 482 C 608 467.6405952 631.505048 456 660.5 456 C 689.494952 456 713 467.6405952 713 482 C 713 496.3594048 689.494952 508 660.5 508 C 631.505048 508 608 496.3594048 608 482 Z"/></g><g transform="translate(-230,-54) scale(1,1)"><path fill="none" stroke="#000000" d="M 608 482 C 608 467.6405952 631.505048 456 660.5 456 C 689.494952 456 713 467.6405952 713 482 C 713 496.3594048 689.494952 508 660.5 508 C 631.505048 508 608 496.3594048 608 482 Z" stroke-miterlimit="10"/></g><g transform="translate(-230,-54) scale(1,1)"><g><path fill="none" stroke="none"/><text fill="#000000" stroke="none" font-family="Arial" font-size="13px" font-style="normal" font-weight="bold" text-decoration="none" x="637.023193359375" y="482.5">Eliminar</text><text fill="#000000" stroke="none" font-family="Arial" font-size="13px" font-style="normal" font-weight="bold" text-decoration="none" x="631.2373046875" y="495.5">percorrido</text></g></g><g transform="translate(-230,-54) scale(1,1)"><path fill="#C0C0C0" stroke="none" d="M 399 106.5 C 399 86.8938896 422.505048 71 451.5 71 C 480.494952 71 504 86.8938896 504 106.5 C 504 126.1061104 480.494952 142 451.5 142 C 422.505048 142 399 126.1061104 399 106.5 Z" opacity="0.2"/></g><g transform="translate(-230,-54) scale(1,1)"><path fill="#ffffff" stroke="none" d="M 392 99.5 C 392 79.8938896 415.505048 64 444.5 64 C 473.494952 64 497 79.8938896 497 99.5 C 497 119.1061104 473.494952 135 444.5 135 C 415.505048 135 392 119.1061104 392 99.5 Z"/></g><g transform="translate(-230,-54) scale(1,1)"><path fill="none" stroke="#000000" d="M 392 99.5 C 392 79.8938896 415.505048 64 444.5 64 C 473.494952 64 497 79.8938896 497 99.5 C 497 119.1061104 473.494952 135 444.5 135 C 415.505048 135 392 119.1061104 392 99.5 Z" stroke-miterlimit="10"/></g><g transform="translate(-230,-54) scale(1,1)"><g><path fill="none" stroke="none"/><text fill="#000000" stroke="none" font-family="Arial" font-size="13px" font-style="normal" font-weight="bold" text-decoration="none" x="422.095947265625" y="93.5">Engadir</text><text fill="#000000" stroke="none" font-family="Arial" font-size="13px" font-style="normal" font-weight="bold" text-decoration="none" x="427.8818359375" y="106.5">POI a</text><text fill="#000000" stroke="none" font-family="Arial" font-size="13px" font-style="normal" font-weight="bold" text-decoration="none" x="415.2373046875" y="119.5">percorrido</text></g></g><g transform="translate(-230,-54) scale(1,1)"><path fill="#C0C0C0" stroke="none" d="M 503 186.5 C 503 166.8938896 526.505048 151 555.5 151 C 584.494952 151 608 166.8938896 608 186.5 C 608 206.1061104 584.494952 222 555.5 222 C 526.505048 222 503 206.1061104 503 186.5 Z" opacity="0.2"/></g><g transform="translate(-230,-54) scale(1,1)"><path fill="#ffffff" stroke="none" d="M 496 179.5 C 496 159.8938896 519.505048 144 548.5 144 C 577.494952 144 601 159.8938896 601 179.5 C 601 199.1061104 577.494952 215 548.5 215 C 519.505048 215 496 199.1061104 496 179.5 Z"/></g><g transform="translate(-230,-54) scale(1,1)"><path fill="none" stroke="#000000" d="M 496 179.5 C 496 159.8938896 519.505048 144 548.5 144 C 577.494952 144 601 159.8938896 601 179.5 C 601 199.1061104 577.494952 215 548.5 215 C 519.505048 215 496 199.1061104 496 179.5 Z" stroke-miterlimit="10"/></g><g transform="translate(-230,-54) scale(1,1)"><g><path fill="none" stroke="none"/><text fill="#000000" stroke="none" font-family="Arial" font-size="13px" font-style="normal" font-weight="bold" text-decoration="none" x="525.023193359375" y="173.5">Eliminar</text><text fill="#000000" stroke="none" font-family="Arial" font-size="13px" font-style="normal" font-weight="bold" text-decoration="none" x="528.266845703125" y="186.5">POI de</text><text fill="#000000" stroke="none" font-family="Arial" font-size="13px" font-style="normal" font-weight="bold" text-decoration="none" x="519.2373046875" y="199.5">percorrido</text></g></g><g transform="translate(-230,-54) scale(1,1)"><path fill="#C0C0C0" stroke="none" d="M 479 369 C 479 354.6405952 502.505048 343 531.5 343 C 560.494952 343 584 354.6405952 584 369 C 584 383.3594048 560.494952 395 531.5 395 C 502.505048 395 479 383.3594048 479 369 Z" opacity="0.2"/></g><g transform="translate(-230,-54) scale(1,1)"><path fill="#ffffff" stroke="none" d="M 472 362 C 472 347.6405952 495.505048 336 524.5 336 C 553.494952 336 577 347.6405952 577 362 C 577 376.3594048 553.494952 388 524.5 388 C 495.505048 388 472 376.3594048 472 362 Z"/></g><g transform="translate(-230,-54) scale(1,1)"><path fill="none" stroke="#000000" d="M 472 362 C 472 347.6405952 495.505048 336 524.5 336 C 553.494952 336 577 347.6405952 577 362 C 577 376.3594048 553.494952 388 524.5 388 C 495.505048 388 472 376.3594048 472 362 Z" stroke-miterlimit="10"/></g><g transform="translate(-230,-54) scale(1,1)"><g><path fill="none" stroke="none"/><text fill="#000000" stroke="none" font-family="Arial" font-size="13px" font-style="normal" font-weight="bold" text-decoration="none" x="497.0400390625" y="362.5">Xestionar</text><text fill="#000000" stroke="none" font-family="Arial" font-size="13px" font-style="normal" font-weight="bold" text-decoration="none" x="495.2373046875" y="375.5">percorrido</text></g></g><g transform="translate(-230,-54) scale(1,1)"><path fill="none" stroke="#000000" d="M 342 239 L 417 136" stroke-miterlimit="10"/></g><g transform="translate(-230,-54) scale(1,1)"><path fill="none" stroke="#000000" d="M 414.42082032486286 146.69335458139116 L 417 136 L 407.6149010236781 141.73758809994595" stroke-miterlimit="10"/></g><g transform="translate(-230,-54) scale(1,1)"><path fill="none" stroke="#000000" d="M 388 247 L 495 202" stroke-miterlimit="10"/></g><g transform="translate(-230,-54) scale(1,1)"><path fill="none" stroke="#000000" d="M 487.26398359340476 209.82010550804077 L 495 202 L 484.0001607051962 202.059459973856" stroke-miterlimit="10"/></g><g transform="translate(-230,-54) scale(1,1)"><path fill="none" stroke="#000000" d="M 388 308 L 471 341" stroke-miterlimit="10"/></g><g transform="translate(-230,-54) scale(1,1)"><path fill="none" stroke="#000000" d="M 460.0011202293767 341.15698341114046 L 471 341 L 463.1116134941855 333.3336215632879" stroke-miterlimit="10"/></g><g transform="translate(-230,-54) scale(1,1)"><path fill="none" stroke="#000000" d="M 443 455 L 501 389" stroke-miterlimit="10"/></g><g transform="translate(-230,-54) scale(1,1)"><path fill="#FFFFFF" stroke="none" d="M 493.90702370121204 409.8252175792915 L 501 389 L 481.2588557903293 398.7101609303339"/></g><g transform="translate(-230,-54) scale(1,1)"><path fill="none" stroke="#000000" d="M 493.90702370121204 409.8252175792915 L 501 389 L 481.2588557903293 398.7101609303339 L 493.90702370121204 409.8252175792915" stroke-miterlimit="10"/></g><g transform="translate(-230,-54) scale(1,1)"><path fill="none" stroke="#000000" d="M 535 447 L 527 389" stroke-miterlimit="10"/></g><g transform="translate(-230,-54) scale(1,1)"><path fill="#FFFFFF" stroke="none" d="M 538.1172773470614 407.98436578841955 L 527 389 L 521.4371284149214 410.2850759859561"/></g><g transform="translate(-230,-54) scale(1,1)"><path fill="none" stroke="#000000" d="M 538.1172773470614 407.98436578841955 L 527 389 L 521.4371284149214 410.2850759859561 L 538.1172773470614 407.98436578841955" stroke-miterlimit="10"/></g><g transform="translate(-230,-54) scale(1,1)"><path fill="none" stroke="#000000" d="M 629 455 L 555 389" stroke-miterlimit="10"/></g><g transform="translate(-230,-54) scale(1,1)"><path fill="#FFFFFF" stroke="none" d="M 575.7725507303442 396.24576677483327 L 555 389 L 564.5648806625871 408.81194230534874"/></g><g transform="translate(-230,-54) scale(1,1)"><path fill="none" stroke="#000000" d="M 575.7725507303442 396.24576677483327 L 555 389 L 564.5648806625871 408.81194230534874 L 575.7725507303442 396.24576677483327" stroke-miterlimit="10"/></g><g transform="translate(-230,-54) scale(1,1)"><path fill="#C0C0C0" stroke="none" d="M 527 274.5 C 527 254.8938896 550.505048 239 579.5 239 C 608.494952 239 632 254.8938896 632 274.5 C 632 294.1061104 608.494952 310 579.5 310 C 550.505048 310 527 294.1061104 527 274.5 Z" opacity="0.2"/></g><g transform="translate(-230,-54) scale(1,1)"><path fill="#ffffff" stroke="none" d="M 520 267.5 C 520 247.8938896 543.505048 232 572.5 232 C 601.494952 232 625 247.8938896 625 267.5 C 625 287.1061104 601.494952 303 572.5 303 C 543.505048 303 520 287.1061104 520 267.5 Z"/></g><g transform="translate(-230,-54) scale(1,1)"><path fill="none" stroke="#000000" d="M 520 267.5 C 520 247.8938896 543.505048 232 572.5 232 C 601.494952 232 625 247.8938896 625 267.5 C 625 287.1061104 601.494952 303 572.5 303 C 543.505048 303 520 287.1061104 520 267.5 Z" stroke-miterlimit="10"/></g><g transform="translate(-230,-54) scale(1,1)"><g><path fill="none" stroke="none"/><text fill="#000000" stroke="none" font-family="Arial" font-size="13px" font-style="normal" font-weight="bold" text-decoration="none" x="550.470458984375" y="261.5">Estimar</text><text fill="#000000" stroke="none" font-family="Arial" font-size="13px" font-style="normal" font-weight="bold" text-decoration="none" x="554.4345703125" y="274.5">tempo</text><text fill="#000000" stroke="none" font-family="Arial" font-size="13px" font-style="normal" font-weight="bold" text-decoration="none" x="543.2373046875" y="287.5">percorrido</text></g></g><g transform="translate(-230,-54) scale(1,1)"><path fill="none" stroke="#000000" d="M 388 276 L 519 269" stroke-miterlimit="10"/></g><g transform="translate(-230,-54) scale(1,1)"><path fill="none" stroke="#000000" d="M 509.0764185648686 273.7457909246316 L 519 269 L 508.6271873286611 265.3387492184622" stroke-miterlimit="10"/></g></g></svg>