<svg version="1.1" xmlns="http://www.w3.org/2000/svg" xmlns:xlink="http://www.w3.org/1999/xlink" width="868.6806640625" height="606"><defs/><g><g transform="translate(-46,-46) scale(1,1)"><rect fill="#C0C0C0" stroke="none" x="63" y="71" width="357.64501953125" height="122" opacity="0.2"/></g><g transform="translate(-46,-46) scale(1,1)"><rect fill="#ffffff" stroke="none" x="56" y="64" width="357.64501953125" height="122"/></g><g transform="translate(-46,-46) scale(1,1)"><path fill="none" stroke="#000000" d="M 56 64 L 413.64501953125 64 L 413.64501953125 186 L 56 186 L 56 64 Z Z" stroke-miterlimit="10"/></g><g transform="translate(-46,-46) scale(1,1)"><path fill="none" stroke="#000000" d="M 56 89 L 413.64501953125 89" stroke-miterlimit="10"/></g><g transform="translate(-46,-46) scale(1,1)"><g><path fill="none" stroke="none"/><text fill="#000000" stroke="none" font-family="Arial" font-size="13px" font-style="normal" font-weight="bold" text-decoration="none" x="188.9384765625" y="83.5">ContaSitumDao</text></g></g><g transform="translate(-46,-46) scale(1,1)"><g><path fill="none" stroke="none"/><text fill="#000000" stroke="none" font-family="Arial" font-size="13px" font-style="italic" font-weight="normal" text-decoration="none" x="61" y="106.5">~engadir(contaSitum: ContaSitum)</text></g></g><g transform="translate(-46,-46) scale(1,1)"><g><path fill="none" stroke="none"/><text fill="#000000" stroke="none" font-family="Arial" font-size="13px" font-style="italic" font-weight="normal" text-decoration="none" x="61" y="121.5">~modificar(contaSitum: ContaSitum)</text></g></g><g transform="translate(-46,-46) scale(1,1)"><g><path fill="none" stroke="none"/><text fill="#000000" stroke="none" font-family="Arial" font-size="13px" font-style="italic" font-weight="normal" text-decoration="none" x="61" y="136.5">~eliminar(contaUsuario: String)</text></g></g><g transform="translate(-46,-46) scale(1,1)"><g><path fill="none" stroke="none"/><text fill="#000000" stroke="none" font-family="Arial" font-size="13px" font-style="italic" font-weight="normal" text-decoration="none" x="61" y="151.5">~getTodas(): List&lt;ContaSitum&gt;</text></g></g><g transform="translate(-46,-46) scale(1,1)"><g><path fill="none" stroke="none"/><text fill="#000000" stroke="none" font-family="Arial" font-size="13px" font-style="italic" font-weight="normal" text-decoration="none" x="61" y="166.5">~getPublica(): List&lt;ContaSitum&gt;</text></g></g><g transform="translate(-46,-46) scale(1,1)"><g><path fill="none" stroke="none"/><text fill="#000000" stroke="none" font-family="Arial" font-size="13px" font-style="italic" font-weight="normal" text-decoration="none" x="61" y="181.5">~getContaPorIdUsuario(idUsuario: Short): List&lt;ContaSitum&gt;</text></g></g><g transform="translate(-46,-46) scale(1,1)"><rect fill="#C0C0C0" stroke="none" x="603.92822265625" y="215" width="307.75244140625" height="62" opacity="0.2"/></g><g transform="translate(-46,-46) scale(1,1)"><rect fill="#ffffff" stroke="none" x="596.92822265625" y="208" width="307.75244140625" height="62"/></g><g transform="translate(-46,-46) scale(1,1)"><path fill="none" stroke="#000000" d="M 596.92822265625 208 L 904.6806640625 208 L 904.6806640625 270 L 596.92822265625 270 L 596.92822265625 208 Z Z" stroke-miterlimit="10"/></g><g transform="translate(-46,-46) scale(1,1)"><path fill="none" stroke="#000000" d="M 596.92822265625 233 L 904.6806640625 233" stroke-miterlimit="10"/></g><g transform="translate(-46,-46) scale(1,1)"><g><path fill="none" stroke="none"/><text fill="#000000" stroke="none" font-family="Arial" font-size="13px" font-style="normal" font-weight="bold" text-decoration="none" x="682.522705078125" y="227.5">ContaSitumUsuarioDao</text></g></g><g transform="translate(-46,-46) scale(1,1)"><g><path fill="none" stroke="none"/><text fill="#000000" stroke="none" font-family="Arial" font-size="13px" font-style="italic" font-weight="normal" text-decoration="none" x="601.92822265625" y="250.5">~engadir(contaSitumUsuario: ContaSitumUsuario)</text></g></g><g transform="translate(-46,-46) scale(1,1)"><g><path fill="none" stroke="none"/><text fill="#000000" stroke="none" font-family="Arial" font-size="13px" font-style="italic" font-weight="normal" text-decoration="none" x="601.92822265625" y="265.5">~modificar(contaSitumUsuario: ContaSitumUsuario)</text></g></g><g transform="translate(-46,-46) scale(1,1)"><rect fill="#C0C0C0" stroke="none" x="687" y="407" width="224.6806640625" height="62" opacity="0.2"/></g><g transform="translate(-46,-46) scale(1,1)"><rect fill="#ffffff" stroke="none" x="680" y="400" width="224.6806640625" height="62"/></g><g transform="translate(-46,-46) scale(1,1)"><path fill="none" stroke="#000000" d="M 680 400 L 904.6806640625 400 L 904.6806640625 462 L 680 462 L 680 400 Z Z" stroke-miterlimit="10"/></g><g transform="translate(-46,-46) scale(1,1)"><path fill="none" stroke="#000000" d="M 680 425 L 904.6806640625 425" stroke-miterlimit="10"/></g><g transform="translate(-46,-46) scale(1,1)"><g><path fill="none" stroke="none"/><text fill="#000000" stroke="none" font-family="Arial" font-size="13px" font-style="normal" font-weight="bold" text-decoration="none" x="759.462646484375" y="419.5">EdificioDao</text></g></g><g transform="translate(-46,-46) scale(1,1)"><g><path fill="none" stroke="none"/><text fill="#000000" stroke="none" font-family="Arial" font-size="13px" font-style="italic" font-weight="normal" text-decoration="none" x="685" y="442.5">~getTodos(): List&lt;Edificio&gt;</text></g></g><g transform="translate(-46,-46) scale(1,1)"><g><path fill="none" stroke="none"/><text fill="#000000" stroke="none" font-family="Arial" font-size="13px" font-style="italic" font-weight="normal" text-decoration="none" x="685" y="457.5">~getEdificio(idEdificio: Short): Edificio</text></g></g><g transform="translate(-46,-46) scale(1,1)"><rect fill="#C0C0C0" stroke="none" x="63" y="527" width="312.138671875" height="122" opacity="0.2"/></g><g transform="translate(-46,-46) scale(1,1)"><rect fill="#ffffff" stroke="none" x="56" y="520" width="312.138671875" height="122"/></g><g transform="translate(-46,-46) scale(1,1)"><path fill="none" stroke="#000000" d="M 56 520 L 368.138671875 520 L 368.138671875 642 L 56 642 L 56 520 Z Z" stroke-miterlimit="10"/></g><g transform="translate(-46,-46) scale(1,1)"><path fill="none" stroke="#000000" d="M 56 545 L 368.138671875 545" stroke-miterlimit="10"/></g><g transform="translate(-46,-46) scale(1,1)"><g><path fill="none" stroke="none"/><text fill="#000000" stroke="none" font-family="Arial" font-size="13px" font-style="normal" font-weight="bold" text-decoration="none" x="182.44482421875" y="539.5">ImaxeDao</text></g></g><g transform="translate(-46,-46) scale(1,1)"><g><path fill="none" stroke="none"/><text fill="#000000" stroke="none" font-family="Arial" font-size="13px" font-style="italic" font-weight="normal" text-decoration="none" x="61" y="562.5">~engadir(imaxe: Imaxe): int</text></g></g><g transform="translate(-46,-46) scale(1,1)"><g><path fill="none" stroke="none"/><text fill="#000000" stroke="none" font-family="Arial" font-size="13px" font-style="italic" font-weight="normal" text-decoration="none" x="61" y="577.5">~modificar(imaxe: Imaxe)</text></g></g><g transform="translate(-46,-46) scale(1,1)"><g><path fill="none" stroke="none"/><text fill="#000000" stroke="none" font-family="Arial" font-size="13px" font-style="italic" font-weight="normal" text-decoration="none" x="61" y="592.5">~eliminar(idImaxe: Short)</text></g></g><g transform="translate(-46,-46) scale(1,1)"><g><path fill="none" stroke="none"/><text fill="#000000" stroke="none" font-family="Arial" font-size="13px" font-style="italic" font-weight="normal" text-decoration="none" x="61" y="607.5">~eliminarPorIdPuntoInterese(idPuntoInterese: Short)</text></g></g><g transform="translate(-46,-46) scale(1,1)"><g><path fill="none" stroke="none"/><text fill="#000000" stroke="none" font-family="Arial" font-size="13px" font-style="italic" font-weight="normal" text-decoration="none" x="61" y="622.5">~getListaImaxePorIdPuntoInterese(): List&lt;Imaxe&gt;</text></g></g><g transform="translate(-46,-46) scale(1,1)"><g><path fill="none" stroke="none"/><text fill="#000000" stroke="none" font-family="Arial" font-size="13px" font-style="italic" font-weight="normal" text-decoration="none" x="61" y="637.5">~getListaImaxePorListaIdImaxe(): List&lt;Imaxe&gt;</text></g></g><g transform="translate(-46,-46) scale(1,1)"><rect fill="#C0C0C0" stroke="none" x="63" y="231" width="486.2548828125" height="122" opacity="0.2"/></g><g transform="translate(-46,-46) scale(1,1)"><rect fill="#ffffff" stroke="none" x="56" y="224" width="486.2548828125" height="122"/></g><g transform="translate(-46,-46) scale(1,1)"><path fill="none" stroke="#000000" d="M 56 224 L 542.2548828125 224 L 542.2548828125 346 L 56 346 L 56 224 Z Z" stroke-miterlimit="10"/></g><g transform="translate(-46,-46) scale(1,1)"><path fill="none" stroke="#000000" d="M 56 249 L 542.2548828125 249" stroke-miterlimit="10"/></g><g transform="translate(-46,-46) scale(1,1)"><g><path fill="none" stroke="none"/><text fill="#000000" stroke="none" font-family="Arial" font-size="13px" font-style="normal" font-weight="bold" text-decoration="none" x="257.22021484375" y="243.5">PercorridoDao</text></g></g><g transform="translate(-46,-46) scale(1,1)"><g><path fill="none" stroke="none"/><text fill="#000000" stroke="none" font-family="Arial" font-size="13px" font-style="italic" font-weight="normal" text-decoration="none" x="61" y="266.5">~engadir(percorrido: Percorrido): Short</text></g></g><g transform="translate(-46,-46) scale(1,1)"><g><path fill="none" stroke="none"/><text fill="#000000" stroke="none" font-family="Arial" font-size="13px" font-style="italic" font-weight="normal" text-decoration="none" x="61" y="281.5">~modificar(percorrido: Percorrido)</text></g></g><g transform="translate(-46,-46) scale(1,1)"><g><path fill="none" stroke="none"/><text fill="#000000" stroke="none" font-family="Arial" font-size="13px" font-style="italic" font-weight="normal" text-decoration="none" x="61" y="296.5">~eliminar(idPercorrido: Short): boolean</text></g></g><g transform="translate(-46,-46) scale(1,1)"><g><path fill="none" stroke="none"/><text fill="#000000" stroke="none" font-family="Arial" font-size="13px" font-style="italic" font-weight="normal" text-decoration="none" x="61" y="311.5">~getPercorrido(idPercorrido: Short): Percorrido</text></g></g><g transform="translate(-46,-46) scale(1,1)"><g><path fill="none" stroke="none"/><text fill="#000000" stroke="none" font-family="Arial" font-size="13px" font-style="italic" font-weight="normal" text-decoration="none" x="61" y="326.5">~getListaPercorridoPorIdEdificio(idEdificio: Short): List&lt;Percorrido&gt;</text></g></g><g transform="translate(-46,-46) scale(1,1)"><g><path fill="none" stroke="none"/><text fill="#000000" stroke="none" font-family="Arial" font-size="13px" font-style="italic" font-weight="normal" text-decoration="none" x="61" y="341.5">~getListaPercorridoPorIdEdificioExterno(idEdificioExterno: Short): List&lt;Percorrido&gt;</text></g></g><g transform="translate(-46,-46) scale(1,1)"><rect fill="#C0C0C0" stroke="none" x="63" y="391" width="594.66015625" height="122" opacity="0.2"/></g><g transform="translate(-46,-46) scale(1,1)"><rect fill="#ffffff" stroke="none" x="56" y="384" width="594.66015625" height="122"/></g><g transform="translate(-46,-46) scale(1,1)"><path fill="none" stroke="#000000" d="M 56 384 L 650.66015625 384 L 650.66015625 506 L 56 506 L 56 384 Z Z" stroke-miterlimit="10"/></g><g transform="translate(-46,-46) scale(1,1)"><path fill="none" stroke="#000000" d="M 56 409 L 650.66015625 409" stroke-miterlimit="10"/></g><g transform="translate(-46,-46) scale(1,1)"><g><path fill="none" stroke="none"/><text fill="#000000" stroke="none" font-family="Arial" font-size="13px" font-style="normal" font-weight="bold" text-decoration="none" x="270.9501953125" y="403.5">PercorridoPuntoIntereseDao</text></g></g><g transform="translate(-46,-46) scale(1,1)"><g><path fill="none" stroke="none"/><text fill="#000000" stroke="none" font-family="Arial" font-size="13px" font-style="italic" font-weight="normal" text-decoration="none" x="61" y="426.5">~engadir(percorridoPuntoInterese: PercorridoPuntoInterese)</text></g></g><g transform="translate(-46,-46) scale(1,1)"><g><path fill="none" stroke="none"/><text fill="#000000" stroke="none" font-family="Arial" font-size="13px" font-style="italic" font-weight="normal" text-decoration="none" x="61" y="441.5">~modificar(percorridoPuntoInterese: PercorridoPuntoInterese)</text></g></g><g transform="translate(-46,-46) scale(1,1)"><g><path fill="none" stroke="none"/><text fill="#000000" stroke="none" font-family="Arial" font-size="13px" font-style="italic" font-weight="normal" text-decoration="none" x="61" y="456.5">~eliminar(idPercorrido: Short, idPuntoInterese: Short)</text></g></g><g transform="translate(-46,-46) scale(1,1)"><g><path fill="none" stroke="none"/><text fill="#000000" stroke="none" font-family="Arial" font-size="13px" font-style="italic" font-weight="normal" text-decoration="none" x="61" y="471.5">~eliminarPorIdPercorrido(idPercorrido: Short)</text></g></g><g transform="translate(-46,-46) scale(1,1)"><g><path fill="none" stroke="none"/><text fill="#000000" stroke="none" font-family="Arial" font-size="13px" font-style="italic" font-weight="normal" text-decoration="none" x="61" y="486.5">~getListaPercorridoPuntoInteresePorIdPercorrido(idPercorrido: Short): List&lt;PercorridoPuntoInterese&gt;</text></g></g><g transform="translate(-46,-46) scale(1,1)"><g><path fill="none" stroke="none"/><text fill="#000000" stroke="none" font-family="Arial" font-size="13px" font-style="italic" font-weight="normal" text-decoration="none" x="61" y="501.5">~getNumeroPercorridoPorIdPuntoInterese(idPoi: Short): int</text></g></g><g transform="translate(-46,-46) scale(1,1)"><rect fill="#C0C0C0" stroke="none" x="491.873046875" y="63" width="419.8076171875" height="137" opacity="0.2"/></g><g transform="translate(-46,-46) scale(1,1)"><rect fill="#ffffff" stroke="none" x="484.873046875" y="56" width="419.8076171875" height="137"/></g><g transform="translate(-46,-46) scale(1,1)"><path fill="none" stroke="#000000" d="M 484.873046875 56 L 904.6806640625 56 L 904.6806640625 193 L 484.873046875 193 L 484.873046875 56 Z Z" stroke-miterlimit="10"/></g><g transform="translate(-46,-46) scale(1,1)"><path fill="none" stroke="#000000" d="M 484.873046875 81 L 904.6806640625 81" stroke-miterlimit="10"/></g><g transform="translate(-46,-46) scale(1,1)"><g><path fill="none" stroke="none"/><text fill="#000000" stroke="none" font-family="Arial" font-size="13px" font-style="normal" font-weight="bold" text-decoration="none" x="642.380126953125" y="75.5">PuntoIntereseDao</text></g></g><g transform="translate(-46,-46) scale(1,1)"><g><path fill="none" stroke="none"/><text fill="#000000" stroke="none" font-family="Arial" font-size="13px" font-style="italic" font-weight="normal" text-decoration="none" x="489.873046875" y="98.5">~engadir(puntoInterese: PuntoInterese): Short</text></g></g><g transform="translate(-46,-46) scale(1,1)"><g><path fill="none" stroke="none"/><text fill="#000000" stroke="none" font-family="Arial" font-size="13px" font-style="italic" font-weight="normal" text-decoration="none" x="489.873046875" y="113.5">~modificar(puntoInterese: PuntoInterese)</text></g></g><g transform="translate(-46,-46) scale(1,1)"><g><path fill="none" stroke="none"/><text fill="#000000" stroke="none" font-family="Arial" font-size="13px" font-style="italic" font-weight="normal" text-decoration="none" x="489.873046875" y="128.5">~eliminar(idPuntoInterese: Short): boolean</text></g></g><g transform="translate(-46,-46) scale(1,1)"><g><path fill="none" stroke="none"/><text fill="#000000" stroke="none" font-family="Arial" font-size="13px" font-style="italic" font-weight="normal" text-decoration="none" x="489.873046875" y="143.5">~getPorId(idPuntoInterese: Short): PuntoInterese</text></g></g><g transform="translate(-46,-46) scale(1,1)"><g><path fill="none" stroke="none"/><text fill="#000000" stroke="none" font-family="Arial" font-size="13px" font-style="italic" font-weight="normal" text-decoration="none" x="489.873046875" y="158.5">~getPorIdEdificio(idEdificio: Short): List&lt;PuntoInterese&gt;</text></g></g><g transform="translate(-46,-46) scale(1,1)"><g><path fill="none" stroke="none"/><text fill="#000000" stroke="none" font-family="Arial" font-size="13px" font-style="italic" font-weight="normal" text-decoration="none" x="489.873046875" y="173.5">~getPorIdEdificioExterno(idEdificioExterno: Short): List&lt;PuntoInterese&gt;</text></g></g><g transform="translate(-46,-46) scale(1,1)"><g><path fill="none" stroke="none"/><text fill="#000000" stroke="none" font-family="Arial" font-size="13px" font-style="italic" font-weight="normal" text-decoration="none" x="489.873046875" y="188.5">~getPorIdPercorrido(idPercorrido: Short): List&lt;PuntoInterese&gt;</text></g></g><g transform="translate(-46,-46) scale(1,1)"><rect fill="#C0C0C0" stroke="none" x="598.84375" y="287" width="312.8369140625" height="92" opacity="0.2"/></g><g transform="translate(-46,-46) scale(1,1)"><rect fill="#ffffff" stroke="none" x="591.84375" y="280" width="312.8369140625" height="92"/></g><g transform="translate(-46,-46) scale(1,1)"><path fill="none" stroke="#000000" d="M 591.84375 280 L 904.6806640625 280 L 904.6806640625 372 L 591.84375 372 L 591.84375 280 Z Z" stroke-miterlimit="10"/></g><g transform="translate(-46,-46) scale(1,1)"><path fill="none" stroke="#000000" d="M 591.84375 305 L 904.6806640625 305" stroke-miterlimit="10"/></g><g transform="translate(-46,-46) scale(1,1)"><g><path fill="none" stroke="none"/><text fill="#000000" stroke="none" font-family="Arial" font-size="13px" font-style="normal" font-weight="bold" text-decoration="none" x="713.9404296875" y="299.5">UsuarioDao</text></g></g><g transform="translate(-46,-46) scale(1,1)"><g><path fill="none" stroke="none"/><text fill="#000000" stroke="none" font-family="Arial" font-size="13px" font-style="italic" font-weight="normal" text-decoration="none" x="596.84375" y="322.5">~engadir(usuario: Usuario, Parameter1: Short)</text></g></g><g transform="translate(-46,-46) scale(1,1)"><g><path fill="none" stroke="none"/><text fill="#000000" stroke="none" font-family="Arial" font-size="13px" font-style="italic" font-weight="normal" text-decoration="none" x="596.84375" y="337.5">~modificar(usuario: Usuario)</text></g></g><g transform="translate(-46,-46) scale(1,1)"><g><path fill="none" stroke="none"/><text fill="#000000" stroke="none" font-family="Arial" font-size="13px" font-style="italic" font-weight="normal" text-decoration="none" x="596.84375" y="352.5">~eliminar(idUsuario: Short)</text></g></g><g transform="translate(-46,-46) scale(1,1)"><g><path fill="none" stroke="none"/><text fill="#000000" stroke="none" font-family="Arial" font-size="13px" font-style="italic" font-weight="normal" text-decoration="none" x="596.84375" y="367.5">~getPorContaUsuario(contaUsuario: String): Usuario</text></g></g><g transform="translate(-46,-46) scale(1,1)"><rect fill="#C0C0C0" stroke="none" x="569.94287109375" y="535" width="341.73779296875" height="92" opacity="0.2"/></g><g transform="translate(-46,-46) scale(1,1)"><rect fill="#ffffff" stroke="none" x="562.94287109375" y="528" width="341.73779296875" height="92"/></g><g transform="translate(-46,-46) scale(1,1)"><path fill="none" stroke="#000000" d="M 562.94287109375 528 L 904.6806640625 528 L 904.6806640625 620 L 562.94287109375 620 L 562.94287109375 528 Z Z" stroke-miterlimit="10"/></g><g transform="translate(-46,-46) scale(1,1)"><path fill="none" stroke="#000000" d="M 562.94287109375 553 L 904.6806640625 553" stroke-miterlimit="10"/></g><g transform="translate(-46,-46) scale(1,1)"><g><path fill="none" stroke="none"/><text fill="#000000" stroke="none" font-family="Arial" font-size="13px" font-style="normal" font-weight="bold" text-decoration="none" x="678.536376953125" y="547.5">UsuarioEdificioDao</text></g></g><g transform="translate(-46,-46) scale(1,1)"><g><path fill="none" stroke="none"/><text fill="#000000" stroke="none" font-family="Arial" font-size="13px" font-style="italic" font-weight="normal" text-decoration="none" x="567.94287109375" y="570.5">~engadir(usuarioEdificio: UsuarioEdificio)</text></g></g><g transform="translate(-46,-46) scale(1,1)"><g><path fill="none" stroke="none"/><text fill="#000000" stroke="none" font-family="Arial" font-size="13px" font-style="italic" font-weight="normal" text-decoration="none" x="567.94287109375" y="585.5">~modificar(usuarioEdificio: UsuarioEdificio)</text></g></g><g transform="translate(-46,-46) scale(1,1)"><g><path fill="none" stroke="none"/><text fill="#000000" stroke="none" font-family="Arial" font-size="13px" font-style="italic" font-weight="normal" text-decoration="none" x="567.94287109375" y="600.5">~eliminar(idUsuario: Short, idEdificio: Short)</text></g></g><g transform="translate(-46,-46) scale(1,1)"><g><path fill="none" stroke="none"/><text fill="#000000" stroke="none" font-family="Arial" font-size="13px" font-style="italic" font-weight="normal" text-decoration="none" x="567.94287109375" y="615.5">~getPorIdUsuario(idUsuario: Short): List&lt;UsuarioEdificio&gt;</text></g></g></g></svg>